<?xml version="1.0" standalone="no"?>
<!DOCTYPE svg PUBLIC "-//W3C//DTD SVG 20010904//EN"
 "http://www.w3.org/TR/2001/REC-SVG-20010904/DTD/svg10.dtd">
<svg version="1.0" xmlns="http://www.w3.org/2000/svg"
 width="225.000000pt" height="225.000000pt" viewBox="0 0 225.000000 225.000000"
 preserveAspectRatio="xMidYMid meet">

<g transform="translate(0.000000,225.000000) scale(0.100000,-0.100000)"
fill="#e4e4e4" stroke="none">
<path d="M370 1961 c-78 -24 -129 -74 -149 -146 -14 -52 -14 -487 0 -538 13
-47 72 -115 116 -134 22 -9 80 -13 188 -13 217 0 245 -17 245 -145 0 -115 -54
-202 -158 -255 -31 -17 -67 -24 -133 -28 -119 -6 -129 -17 -129 -144 0 -81 2
-91 25 -113 21 -22 33 -25 92 -25 221 1 421 116 515 296 68 131 68 127 68 636
0 362 -3 465 -13 491 -19 44 -87 103 -134 116 -43 12 -494 14 -533 2z"/>
<path d="M1375 1965 c-5 -2 -22 -6 -38 -9 -36 -8 -107 -73 -124 -113 -10 -24
-13 -98 -13 -298 0 -242 2 -269 19 -303 22 -43 53 -73 98 -96 25 -13 64 -16
188 -16 178 0 214 -9 241 -61 22 -43 14 -150 -15 -208 -53 -102 -138 -152
-274 -159 -113 -6 -117 -11 -117 -143 0 -93 1 -98 26 -118 52 -41 228 -20 362
44 148 70 277 243 302 405 5 36 10 253 10 486 l0 420 -27 55 c-30 57 -71 92
-132 109 -32 9 -481 13 -506 5z"/>
</g>
</svg>
